<svg width="81" height="48" viewBox="0 0 81 48" fill="none" xmlns="http://www.w3.org/2000/svg">
<g clip-path="url(#clip0_310_65)">
<path d="M35.5841 45.928C35.5841 46.012 35.5601 46.054 35.5121 46.054C35.3081 46.054 35.0666 46.045 34.7876 46.027C34.5236 46.009 34.3001 46 34.1171 46C33.9341 46 33.7226 46.009 33.4826 46.027C33.2306 46.045 33.0041 46.054 32.8031 46.054C32.7551 46.054 32.7311 46.012 32.7311 45.928C32.7311 45.853 32.7566 45.8125 32.8076 45.8065C33.0596 45.7765 33.2471 45.736 33.3701 45.685C33.4931 45.631 33.5711 45.562 33.6041 45.478C33.6401 45.391 33.6581 45.247 33.6581 45.046V43.039H30.2246V45.046C30.2246 45.247 30.2411 45.391 30.2741 45.478C30.3101 45.562 30.3896 45.631 30.5126 45.685C30.6356 45.736 30.8246 45.7765 31.0796 45.8065C31.1276 45.8125 31.1516 45.853 31.1516 45.928C31.1516 46.012 31.1276 46.054 31.0796 46.054C30.8786 46.054 30.6521 46.045 30.4001 46.027C30.1601 46.009 29.9486 46 29.7656 46C29.5826 46 29.3576 46.009 29.0906 46.027C28.8116 46.045 28.5716 46.054 28.3706 46.054C28.3226 46.054 28.2986 46.012 28.2986 45.928C28.2986 45.853 28.3226 45.8125 28.3706 45.8065C28.7336 45.7645 28.9796 45.697 29.1086 45.604C29.2406 45.511 29.3066 45.325 29.3066 45.046V40.8115C29.3066 40.6015 29.2796 40.4545 29.2256 40.3705C29.1746 40.2835 29.0831 40.216 28.9511 40.168C28.8191 40.117 28.6256 40.0765 28.3706 40.0465C28.3226 40.0465 28.2986 40.0045 28.2986 39.9205C28.2986 39.8365 28.3226 39.7945 28.3706 39.7945C28.5716 39.7945 28.8116 39.8035 29.0906 39.8215C29.3576 39.8395 29.5826 39.8485 29.7656 39.8485C29.9486 39.8485 30.1601 39.8395 30.4001 39.8215C30.6521 39.8035 30.8786 39.7945 31.0796 39.7945C31.1276 39.7945 31.1516 39.8365 31.1516 39.9205C31.1516 40.0045 31.1276 40.0465 31.0796 40.0465C30.8456 40.0735 30.6686 40.1095 30.5486 40.1545C30.4286 40.1995 30.3446 40.261 30.2966 40.339C30.2486 40.414 30.2246 40.5715 30.2246 40.8115V42.751H33.6581V40.8115C33.6581 40.6105 33.6401 40.4665 33.6041 40.3795C33.5711 40.2925 33.4931 40.2235 33.3701 40.1725C33.2501 40.1185 33.0611 40.0765 32.8031 40.0465C32.7551 40.0465 32.7311 40.0045 32.7311 39.9205C32.7311 39.8365 32.7551 39.7945 32.8031 39.7945C33.0041 39.7945 33.2306 39.8035 33.4826 39.8215C33.7226 39.8395 33.9341 39.8485 34.1171 39.8485C34.3001 39.8485 34.5236 39.8395 34.7876 39.8215C35.0666 39.8035 35.3081 39.7945 35.5121 39.7945C35.5601 39.7945 35.5841 39.8365 35.5841 39.9205C35.5841 40.0045 35.5601 40.0465 35.5121 40.0465C35.2571 40.0765 35.0636 40.117 34.9316 40.168C34.7996 40.216 34.7066 40.2835 34.6526 40.3705C34.6016 40.4545 34.5761 40.6015 34.5761 40.8115V45.046C34.5761 45.325 34.6406 45.511 34.7696 45.604C34.9016 45.697 35.1491 45.7645 35.5121 45.8065C35.5601 45.8125 35.5841 45.853 35.5841 45.928ZM40.6518 44.137C40.6518 44.734 40.4568 45.226 40.0668 45.613C39.6798 45.997 39.1773 46.189 38.5593 46.189C37.9413 46.189 37.4373 45.9955 37.0473 45.6085C36.6573 45.2215 36.4623 44.731 36.4623 44.137C36.4623 43.534 36.6588 43.033 37.0518 42.634C37.4448 42.232 37.9473 42.031 38.5593 42.031C39.1743 42.031 39.6768 42.2305 40.0668 42.6295C40.4568 43.0285 40.6518 43.531 40.6518 44.137ZM39.7473 44.128C39.7473 43.579 39.6408 43.141 39.4278 42.814C39.2178 42.484 38.9283 42.319 38.5593 42.319C38.1933 42.319 37.9038 42.484 37.6908 42.814C37.4778 43.144 37.3713 43.582 37.3713 44.128C37.3713 44.671 37.4763 45.103 37.6863 45.424C37.8963 45.742 38.1873 45.901 38.5593 45.901C38.9313 45.901 39.2223 45.7435 39.4323 45.4285C39.6423 45.1105 39.7473 44.677 39.7473 44.128ZM48.996 45.928C48.996 46.012 48.972 46.054 48.924 46.054C48.804 46.054 48.657 46.045 48.483 46.027C48.291 46.009 48.12 46 47.97 46C47.823 46 47.6535 46.009 47.4615 46.027C47.2875 46.045 47.139 46.054 47.016 46.054C46.968 46.054 46.944 46.012 46.944 45.928C46.944 45.853 46.968 45.8125 47.016 45.8065C47.22 45.7825 47.3535 45.724 47.4165 45.631C47.4795 45.538 47.511 45.343 47.511 45.046V43.543C47.511 43.204 47.4465 42.958 47.3175 42.805C47.1885 42.649 46.986 42.571 46.71 42.571C46.347 42.571 46.047 42.694 45.81 42.94V45.046C45.81 45.343 45.843 45.538 45.909 45.631C45.975 45.724 46.11 45.7825 46.314 45.8065C46.362 45.8125 46.386 45.853 46.386 45.928C46.386 46.012 46.362 46.054 46.314 46.054C46.194 46.054 46.0545 46.045 45.8955 46.027C45.7215 46.009 45.5625 46 45.4185 46C45.2685 46 45.105 46.009 44.928 46.027C44.769 46.045 44.6295 46.054 44.5095 46.054C44.4615 46.054 44.4375 46.012 44.4375 45.928C44.4375 45.853 44.4615 45.8125 44.5095 45.8065C44.7165 45.7825 44.8515 45.724 44.9145 45.631C44.9805 45.538 45.0135 45.343 45.0135 45.046V43.543C45.0135 43.207 44.9475 42.961 44.8155 42.805C44.6835 42.649 44.4795 42.571 44.2035 42.571C44.0295 42.571 43.875 42.604 43.74 42.67C43.608 42.736 43.4655 42.853 43.3125 43.021V45.046C43.3125 45.343 43.344 45.538 43.407 45.631C43.473 45.724 43.6095 45.7825 43.8165 45.8065C43.8645 45.8125 43.8885 45.853 43.8885 45.928C43.8885 46.012 43.8645 46.054 43.8165 46.054C43.6935 46.054 43.5435 46.045 43.3665 46.027C43.1715 46.009 43.0005 46 42.8535 46C42.7035 46 42.5325 46.009 42.3405 46.027C42.1695 46.045 42.0225 46.054 41.8995 46.054C41.8515 46.054 41.8275 46.012 41.8275 45.928C41.8275 45.853 41.8515 45.8125 41.8995 45.8065C42.1545 45.7735 42.318 45.712 42.39 45.622C42.465 45.532 42.5025 45.34 42.5025 45.046V43.381C42.5025 43.141 42.471 42.9835 42.408 42.9085C42.348 42.8335 42.2145 42.784 42.0075 42.76C41.9595 42.76 41.9355 42.721 41.9355 42.643C41.9355 42.571 41.9595 42.535 42.0075 42.535C42.3045 42.46 42.552 42.376 42.75 42.283C42.948 42.187 43.0725 42.109 43.1235 42.049C43.1535 42.013 43.1865 41.995 43.2225 41.995C43.3065 41.995 43.3485 42.019 43.3485 42.067L43.3125 42.634C43.7445 42.232 44.1465 42.031 44.5185 42.031C45.0885 42.031 45.4755 42.25 45.6795 42.688C46.1355 42.25 46.581 42.031 47.016 42.031C47.427 42.031 47.7465 42.148 47.9745 42.382C48.2055 42.616 48.321 42.931 48.321 43.327V45.046C48.321 45.34 48.357 45.532 48.429 45.622C48.504 45.712 48.669 45.7735 48.924 45.8065C48.972 45.8125 48.996 45.853 48.996 45.928ZM53.5559 43.498C53.5559 43.582 53.5019 43.624 53.3939 43.624H50.9279C50.9099 43.786 50.9009 43.954 50.9009 44.128C50.9009 44.611 51.0149 44.983 51.2429 45.244C51.4739 45.502 51.8009 45.631 52.2239 45.631C52.4369 45.631 52.6514 45.574 52.8674 45.46C53.0834 45.346 53.2574 45.2005 53.3894 45.0235L53.4119 45.0145C53.4389 45.0145 53.4644 45.031 53.4884 45.064C53.5154 45.097 53.5289 45.136 53.5289 45.181C53.5289 45.244 53.4329 45.376 53.2409 45.577C53.0489 45.775 52.8404 45.9265 52.6154 46.0315C52.3904 46.1365 52.1549 46.189 51.9089 46.189C51.3689 46.189 50.9144 45.991 50.5454 45.595C50.1764 45.199 49.9919 44.713 49.9919 44.137C49.9919 43.549 50.1719 43.051 50.5319 42.643C50.8949 42.235 51.3539 42.031 51.9089 42.031C52.3739 42.031 52.7639 42.184 53.0789 42.49C53.3969 42.793 53.5559 43.129 53.5559 43.498ZM52.7369 43.102C52.7369 42.877 52.6589 42.691 52.5029 42.544C52.3499 42.394 52.1519 42.319 51.9089 42.319C51.6779 42.319 51.4769 42.4165 51.3059 42.6115C51.1379 42.8035 51.0239 43.057 50.9639 43.372L52.2149 43.336C52.4039 43.333 52.5374 43.315 52.6154 43.282C52.6964 43.249 52.7369 43.189 52.7369 43.102ZM57.6668 44.893C57.6668 45.259 57.5228 45.5665 57.2348 45.8155C56.9468 46.0645 56.5988 46.189 56.1908 46.189C56.0468 46.189 55.8248 46.1575 55.5248 46.0945C55.2998 46.0495 55.1468 46.027 55.0658 46.027C55.0418 45.817 54.9863 45.4975 54.8993 45.0685C54.8993 45.0235 54.9428 45.001 55.0298 45.001C55.1018 45.001 55.1453 45.025 55.1603 45.073C55.2293 45.295 55.3658 45.4885 55.5698 45.6535C55.7738 45.8185 55.9838 45.901 56.1998 45.901C56.4248 45.901 56.5988 45.8395 56.7218 45.7165C56.8478 45.5935 56.9108 45.421 56.9108 45.199C56.9108 45.058 56.8583 44.9335 56.7533 44.8255C56.6513 44.7175 56.4278 44.584 56.0828 44.425C55.6298 44.218 55.3298 44.023 55.1828 43.84C55.0388 43.657 54.9668 43.438 54.9668 43.183C54.9668 42.868 55.1033 42.598 55.3763 42.373C55.6493 42.145 55.9718 42.031 56.3438 42.031C56.4998 42.031 56.7188 42.058 57.0008 42.112C57.1568 42.142 57.2588 42.157 57.3068 42.157C57.3158 42.511 57.3353 42.8125 57.3653 43.0615C57.3653 43.1065 57.3218 43.129 57.2348 43.129C57.1598 43.129 57.1178 43.105 57.1088 43.057C57.0758 42.838 56.9933 42.661 56.8613 42.526C56.7293 42.388 56.5718 42.319 56.3888 42.319C55.9208 42.319 55.6868 42.523 55.6868 42.931C55.6868 43.069 55.7423 43.1965 55.8533 43.3135C55.9643 43.4305 56.2058 43.582 56.5778 43.768C57.0218 43.99 57.3143 44.182 57.4553 44.344C57.5963 44.506 57.6668 44.689 57.6668 44.893Z" fill="#202452"/>
<path d="M4.26999 26L12.27 25.9999" stroke="#202452" stroke-width="2" stroke-linecap="round"/>
<path d="M67.7 26L75.7 25.9999" stroke="#202452" stroke-width="2" stroke-linecap="round"/>
<path d="M12.3 26L39.9429 4.50889" stroke="#202452" stroke-width="2" stroke-linecap="round"/>
<path d="M67.6677 26L40.1276 4.37734" stroke="#202452" stroke-width="2" stroke-linecap="round"/>
<path d="M21.9779 37.078L18.7799 30.032L18.4029 35.804C18.3942 36.0207 18.4505 36.1853 18.5719 36.298C18.6932 36.402 18.8709 36.4757 19.1049 36.519L20.0539 36.714V37H16.4789V36.714L17.2329 36.545C17.3889 36.5103 17.5145 36.467 17.6099 36.415C17.7139 36.3543 17.7919 36.2763 17.8439 36.181C17.8959 36.0857 17.9262 35.96 17.9349 35.804L18.3249 29.447C18.3422 29.1697 18.3032 28.9877 18.2079 28.901C18.1212 28.8143 17.9262 28.7407 17.6229 28.68L16.9599 28.537V28.251L20.0149 28.264L22.7579 34.283L25.1889 28.251H28.3349V28.537L27.6719 28.68C27.3772 28.7407 27.1822 28.8143 27.0869 28.901C27.0002 28.9877 26.9612 29.1697 26.9699 29.447L27.2299 35.804C27.2385 35.986 27.2602 36.1247 27.2949 36.22C27.3295 36.3153 27.3945 36.389 27.4899 36.441C27.5852 36.4843 27.7325 36.5277 27.9319 36.571L28.5949 36.714V37H24.0449V36.714L24.7079 36.571C25.0112 36.5017 25.2062 36.4237 25.2929 36.337C25.3882 36.2503 25.4272 36.0727 25.4099 35.804L25.1239 29.733L22.1729 37.078H21.9779ZM29.3773 37V36.714L30.0403 36.571C30.3436 36.5017 30.5343 36.4237 30.6123 36.337C30.699 36.2503 30.7423 36.0727 30.7423 35.804V29.447C30.7423 29.1697 30.699 28.9877 30.6123 28.901C30.5343 28.8143 30.3436 28.7407 30.0403 28.68L29.3773 28.537V28.251H33.9273V28.537L33.2643 28.68C32.9696 28.7407 32.779 28.8143 32.6923 28.901C32.6056 28.9877 32.5623 29.1697 32.5623 29.447V32.905L36.3583 29.239C36.4536 29.1523 36.497 29.057 36.4883 28.953C36.4796 28.8403 36.3756 28.7667 36.1763 28.732L35.1493 28.537V28.251H38.6463V28.537L38.2563 28.628C38.0916 28.6627 37.94 28.7103 37.8013 28.771C37.6626 28.823 37.5196 28.901 37.3723 29.005C37.2336 29.109 37.069 29.252 36.8783 29.434L34.4343 31.8L37.7883 36.168C37.953 36.35 38.1133 36.4843 38.2693 36.571C38.4253 36.6577 38.6203 36.701 38.8543 36.701V37H37.2813C36.9173 37 36.614 36.9523 36.3713 36.857C36.1286 36.753 35.8946 36.5797 35.6693 36.337L33.1213 33.061L32.5623 33.607V35.804C32.5623 36.0727 32.6056 36.2503 32.6923 36.337C32.779 36.4237 32.9696 36.5017 33.2643 36.571L33.9273 36.714V37H29.3773ZM43.3985 37.195L40.3175 29.109C40.2742 28.9963 40.2178 28.9097 40.1485 28.849C40.0792 28.7797 39.9622 28.7277 39.7975 28.693L39.0825 28.537V28.251H43.7625V28.537L43.0995 28.68C42.8048 28.7407 42.6142 28.8273 42.5275 28.94C42.4408 29.044 42.4408 29.2087 42.5275 29.434L44.3345 34.842L46.2065 29.317C46.2672 29.1437 46.2542 29.0093 46.1675 28.914C46.0895 28.81 45.9638 28.7407 45.7905 28.706L44.8805 28.537V28.251H49.0015V28.537L48.1825 28.706C48.0785 28.7233 47.9875 28.758 47.9095 28.81C47.8315 28.8533 47.7752 28.9183 47.7405 29.005C47.7145 29.083 47.7232 29.187 47.7665 29.317L49.6385 34.92L51.6405 29.265C51.6925 29.1177 51.6752 29.0137 51.5885 28.953C51.5018 28.8837 51.2722 28.8057 50.8995 28.719L50.0935 28.537V28.251H53.7205V28.537L52.9015 28.719C52.7368 28.7537 52.5938 28.8143 52.4725 28.901C52.3512 28.979 52.2645 29.0917 52.2125 29.239L49.3005 37.195H48.6765L46.2585 30.851L44.0225 37.195H43.3985ZM53.3588 37V36.779L53.7748 36.623C54.0088 36.5277 54.1258 36.3543 54.1258 36.103V32.385C54.1258 32.203 54.0954 32.0817 54.0348 32.021C53.9741 31.9603 53.8874 31.917 53.7748 31.891L53.3588 31.787V31.553C53.8528 31.4837 54.2731 31.4187 54.6198 31.358C54.9664 31.2973 55.3261 31.1977 55.6988 31.059L55.8288 31.163C55.7681 31.2583 55.7204 31.4057 55.6858 31.605C55.6598 31.8043 55.6468 32.021 55.6468 32.255V36.194C55.6468 36.3153 55.6858 36.4107 55.7638 36.48C55.8504 36.5493 55.9284 36.597 55.9978 36.623L56.4138 36.779V37H53.3588ZM54.8668 29.915C54.5981 29.915 54.3684 29.824 54.1778 29.642C53.9958 29.4513 53.9048 29.2217 53.9048 28.953C53.9048 28.6843 53.9958 28.459 54.1778 28.277C54.3684 28.0863 54.5981 27.991 54.8668 27.991C55.1354 27.991 55.3608 28.0863 55.5428 28.277C55.7334 28.459 55.8288 28.6843 55.8288 28.953C55.8288 29.2217 55.7334 29.4513 55.5428 29.642C55.3608 29.824 55.1354 29.915 54.8668 29.915ZM59.2513 37.104C58.8266 37.104 58.428 37.0433 58.0553 36.922C57.6826 36.792 57.3966 36.6707 57.1973 36.558C57.2146 36.3067 57.2233 36.0207 57.2233 35.7C57.232 35.3793 57.2016 35.0847 57.1323 34.816H57.6263C57.6783 35.154 57.778 35.466 57.9253 35.752C58.0813 36.038 58.2763 36.2677 58.5103 36.441C58.753 36.6143 59.026 36.701 59.3293 36.701C59.5893 36.701 59.7973 36.6273 59.9533 36.48C60.118 36.3327 60.2003 36.129 60.2003 35.869C60.2003 35.661 60.1613 35.492 60.0833 35.362C60.0053 35.2233 59.8623 35.0977 59.6543 34.985C59.455 34.8637 59.1646 34.7293 58.7833 34.582C58.2633 34.3827 57.8863 34.1443 57.6523 33.867C57.4183 33.581 57.3013 33.204 57.3013 32.736C57.3013 32.45 57.388 32.1857 57.5613 31.943C57.7433 31.7003 57.9903 31.5053 58.3023 31.358C58.623 31.202 58.9956 31.124 59.4203 31.124C59.7063 31.124 59.9403 31.15 60.1223 31.202C60.3043 31.254 60.495 31.3233 60.6943 31.41H61.0323C60.9976 31.7307 60.989 32.008 61.0063 32.242C61.0323 32.476 61.0713 32.7317 61.1233 33.009H60.7333C60.6033 32.5237 60.417 32.1553 60.1743 31.904C59.9316 31.644 59.6326 31.514 59.2773 31.514C59.0433 31.514 58.8526 31.5833 58.7053 31.722C58.5666 31.852 58.4973 32.0253 58.4973 32.242C58.4973 32.45 58.5406 32.619 58.6273 32.749C58.714 32.879 58.857 32.9917 59.0563 33.087C59.2556 33.1823 59.52 33.2863 59.8493 33.399C60.3173 33.5637 60.6986 33.7847 60.9933 34.062C61.288 34.3307 61.4353 34.7423 61.4353 35.297C61.4353 35.5917 61.3573 35.8777 61.2013 36.155C61.0453 36.4323 60.8026 36.662 60.4733 36.844C60.1526 37.0173 59.7453 37.104 59.2513 37.104ZM65.142 37.104C64.5874 37.104 64.0934 36.974 63.66 36.714C63.2354 36.454 62.8974 36.103 62.646 35.661C62.4034 35.219 62.282 34.7293 62.282 34.192C62.282 33.5853 62.412 33.0523 62.672 32.593C62.9407 32.1337 63.3004 31.774 63.751 31.514C64.2104 31.254 64.726 31.124 65.298 31.124C65.7574 31.124 66.156 31.2323 66.494 31.449C66.8407 31.657 67.1094 31.9473 67.3 32.32C67.4907 32.684 67.586 33.0957 67.586 33.555C67.586 33.6417 67.56 33.7197 67.508 33.789C67.4647 33.8497 67.391 33.88 67.287 33.88H63.075V33.412L65.896 33.295C66.0174 33.295 66.078 33.204 66.078 33.022C66.078 32.5627 66 32.203 65.844 31.943C65.688 31.6743 65.48 31.54 65.22 31.54C64.8214 31.54 64.5094 31.7567 64.284 32.19C64.0587 32.6233 63.946 33.191 63.946 33.893C63.946 34.3783 64.0327 34.79 64.206 35.128C64.3794 35.466 64.609 35.7217 64.895 35.895C65.181 36.0683 65.493 36.155 65.831 36.155C66.3424 36.155 66.8537 35.9383 67.365 35.505L67.586 35.713C67.2394 36.1897 66.8624 36.5407 66.455 36.766C66.0477 36.9913 65.61 37.104 65.142 37.104Z" fill="#202452"/>
<rect x="40.7" y="19" width="5" height="5" fill="#DAB212"/>
<rect x="34.7" y="13" width="5" height="5" fill="#DAB212"/>
<rect x="34.7" y="19" width="5" height="5" fill="#DAB212"/>
<rect x="40.7" y="13" width="5" height="5" fill="#DAB212"/>
</g>
<defs>
<clipPath id="clip0_310_65">
<rect width="81" height="48" fill="white"/>
</clipPath>
</defs>
</svg>
