<svg width="209" height="124" viewBox="0 0 418 248" fill="none" xmlns="http://www.w3.org/2000/svg">
<path d="M8 172L84 173" stroke="#202452" stroke-width="16" stroke-linecap="round"/>
<path d="M222 20L357 176" stroke="#202452" stroke-width="16" stroke-linecap="round"/>
<path d="M85 173L220.597 20.645" stroke="#202452" stroke-width="16" stroke-linecap="round"/>
<path d="M357 176L410 175" stroke="#202452" stroke-width="16" stroke-linecap="round"/>
<rect x="224" y="123" width="20" height="20" fill="#DAB212"/>
<rect x="199" y="98" width="20" height="20" fill="#DAB212"/>
<rect x="199" y="123" width="20" height="20" fill="#DAB212"/>
<rect x="224" y="98" width="20" height="20" fill="#DAB212"/>
<path d="M158.393 187.24L148.553 165.56L147.393 183.32C147.367 183.987 147.54 184.493 147.913 184.84C148.287 185.16 148.833 185.387 149.553 185.52L152.473 186.12V187H141.473V186.12L143.793 185.6C144.273 185.493 144.66 185.36 144.953 185.2C145.273 185.013 145.513 184.773 145.673 184.48C145.833 184.187 145.927 183.8 145.953 183.32L147.153 163.76C147.207 162.907 147.087 162.347 146.793 162.08C146.527 161.813 145.927 161.587 144.993 161.4L142.953 160.96V160.08L152.353 160.12L160.793 178.64L168.273 160.08H177.953V160.96L175.913 161.4C175.007 161.587 174.407 161.813 174.113 162.08C173.847 162.347 173.727 162.907 173.753 163.76L174.553 183.32C174.58 183.88 174.647 184.307 174.753 184.6C174.86 184.893 175.06 185.12 175.353 185.28C175.647 185.413 176.1 185.547 176.713 185.68L178.753 186.12V187H164.753V186.12L166.793 185.68C167.727 185.467 168.327 185.227 168.593 184.96C168.887 184.693 169.007 184.147 168.953 183.32L168.073 164.64L158.993 187.24H158.393ZM181.161 187V186.12L183.201 185.68C184.134 185.467 184.721 185.227 184.961 184.96C185.228 184.693 185.361 184.147 185.361 183.32V163.76C185.361 162.907 185.228 162.347 184.961 162.08C184.721 161.813 184.134 161.587 183.201 161.4L181.161 160.96V160.08H195.161V160.96L193.121 161.4C192.214 161.587 191.628 161.813 191.361 162.08C191.094 162.347 190.961 162.907 190.961 163.76V174.4L202.641 163.12C202.934 162.853 203.068 162.56 203.041 162.24C203.014 161.893 202.694 161.667 202.081 161.56L198.921 160.96V160.08H209.681V160.96L208.481 161.24C207.974 161.347 207.508 161.493 207.081 161.68C206.654 161.84 206.214 162.08 205.761 162.4C205.334 162.72 204.828 163.16 204.241 163.72L196.721 171L207.041 184.44C207.548 185 208.041 185.413 208.521 185.68C209.001 185.947 209.601 186.08 210.321 186.08V187H205.481C204.361 187 203.428 186.853 202.681 186.56C201.934 186.24 201.214 185.707 200.521 184.96L192.681 174.88L190.961 176.56V183.32C190.961 184.147 191.094 184.693 191.361 184.96C191.628 185.227 192.214 185.467 193.121 185.68L195.161 186.12V187H181.161ZM224.303 187.6L214.823 162.72C214.69 162.373 214.516 162.107 214.303 161.92C214.09 161.707 213.73 161.547 213.223 161.44L211.023 160.96V160.08H225.423V160.96L223.383 161.4C222.476 161.587 221.89 161.853 221.623 162.2C221.356 162.52 221.356 163.027 221.623 163.72L227.183 180.36L232.943 163.36C233.13 162.827 233.09 162.413 232.823 162.12C232.583 161.8 232.196 161.587 231.663 161.48L228.863 160.96V160.08H241.543V160.96L239.023 161.48C238.703 161.533 238.423 161.64 238.183 161.8C237.943 161.933 237.77 162.133 237.663 162.4C237.583 162.64 237.61 162.96 237.743 163.36L243.503 180.6L249.663 163.2C249.823 162.747 249.77 162.427 249.503 162.24C249.236 162.027 248.53 161.787 247.383 161.52L244.903 160.96V160.08H256.063V160.96L253.543 161.52C253.036 161.627 252.596 161.813 252.223 162.08C251.85 162.32 251.583 162.667 251.423 163.12L242.463 187.6H240.543L233.103 168.08L226.223 187.6H224.303ZM254.95 187V186.32L256.23 185.84C256.95 185.547 257.31 185.013 257.31 184.24V172.8C257.31 172.24 257.217 171.867 257.03 171.68C256.843 171.493 256.577 171.36 256.23 171.28L254.95 170.96V170.24C256.47 170.027 257.763 169.827 258.83 169.64C259.897 169.453 261.003 169.147 262.15 168.72L262.55 169.04C262.363 169.333 262.217 169.787 262.11 170.4C262.03 171.013 261.99 171.68 261.99 172.4V184.52C261.99 184.893 262.11 185.187 262.35 185.4C262.617 185.613 262.857 185.76 263.07 185.84L264.35 186.32V187H254.95ZM259.59 165.2C258.763 165.2 258.057 164.92 257.47 164.36C256.91 163.773 256.63 163.067 256.63 162.24C256.63 161.413 256.91 160.72 257.47 160.16C258.057 159.573 258.763 159.28 259.59 159.28C260.417 159.28 261.11 159.573 261.67 160.16C262.257 160.72 262.55 161.413 262.55 162.24C262.55 163.067 262.257 163.773 261.67 164.36C261.11 164.92 260.417 165.2 259.59 165.2ZM273.081 187.32C271.774 187.32 270.548 187.133 269.401 186.76C268.254 186.36 267.374 185.987 266.761 185.64C266.814 184.867 266.841 183.987 266.841 183C266.868 182.013 266.774 181.107 266.561 180.28H268.081C268.241 181.32 268.548 182.28 269.001 183.16C269.481 184.04 270.081 184.747 270.801 185.28C271.548 185.813 272.388 186.08 273.321 186.08C274.121 186.08 274.761 185.853 275.241 185.4C275.748 184.947 276.001 184.32 276.001 183.52C276.001 182.88 275.881 182.36 275.641 181.96C275.401 181.533 274.961 181.147 274.321 180.8C273.708 180.427 272.814 180.013 271.641 179.56C270.041 178.947 268.881 178.213 268.161 177.36C267.441 176.48 267.081 175.32 267.081 173.88C267.081 173 267.348 172.187 267.881 171.44C268.441 170.693 269.201 170.093 270.161 169.64C271.148 169.16 272.294 168.92 273.601 168.92C274.481 168.92 275.201 169 275.761 169.16C276.321 169.32 276.908 169.533 277.521 169.8H278.561C278.454 170.787 278.428 171.64 278.481 172.36C278.561 173.08 278.681 173.867 278.841 174.72H277.641C277.241 173.227 276.668 172.093 275.921 171.32C275.174 170.52 274.254 170.12 273.161 170.12C272.441 170.12 271.854 170.333 271.401 170.76C270.974 171.16 270.761 171.693 270.761 172.36C270.761 173 270.894 173.52 271.161 173.92C271.428 174.32 271.868 174.667 272.481 174.96C273.094 175.253 273.908 175.573 274.921 175.92C276.361 176.427 277.534 177.107 278.441 177.96C279.348 178.787 279.801 180.053 279.801 181.76C279.801 182.667 279.561 183.547 279.081 184.4C278.601 185.253 277.854 185.96 276.841 186.52C275.854 187.053 274.601 187.32 273.081 187.32ZM291.206 187.32C289.5 187.32 287.98 186.92 286.646 186.12C285.34 185.32 284.3 184.24 283.526 182.88C282.78 181.52 282.406 180.013 282.406 178.36C282.406 176.493 282.806 174.853 283.606 173.44C284.433 172.027 285.54 170.92 286.926 170.12C288.34 169.32 289.926 168.92 291.686 168.92C293.1 168.92 294.326 169.253 295.366 169.92C296.433 170.56 297.26 171.453 297.846 172.6C298.433 173.72 298.726 174.987 298.726 176.4C298.726 176.667 298.646 176.907 298.486 177.12C298.353 177.307 298.126 177.4 297.806 177.4H284.846V175.96L293.526 175.6C293.9 175.6 294.086 175.32 294.086 174.76C294.086 173.347 293.846 172.24 293.366 171.44C292.886 170.613 292.246 170.2 291.446 170.2C290.22 170.2 289.26 170.867 288.566 172.2C287.873 173.533 287.526 175.28 287.526 177.44C287.526 178.933 287.793 180.2 288.326 181.24C288.86 182.28 289.566 183.067 290.446 183.6C291.326 184.133 292.286 184.4 293.326 184.4C294.9 184.4 296.473 183.733 298.046 182.4L298.726 183.04C297.66 184.507 296.5 185.587 295.246 186.28C293.993 186.973 292.646 187.32 291.206 187.32Z" fill="#202452"/>
<path d="M189.041 225.68C189.041 226.053 188.934 226.24 188.721 226.24C187.814 226.24 186.741 226.2 185.501 226.12C184.327 226.04 183.334 226 182.521 226C181.707 226 180.767 226.04 179.701 226.12C178.581 226.2 177.574 226.24 176.681 226.24C176.467 226.24 176.361 226.053 176.361 225.68C176.361 225.347 176.474 225.167 176.701 225.14C177.821 225.007 178.654 224.827 179.201 224.6C179.747 224.36 180.094 224.053 180.241 223.68C180.401 223.293 180.481 222.653 180.481 221.76V212.84H165.221V221.76C165.221 222.653 165.294 223.293 165.441 223.68C165.601 224.053 165.954 224.36 166.501 224.6C167.047 224.827 167.887 225.007 169.021 225.14C169.234 225.167 169.341 225.347 169.341 225.68C169.341 226.053 169.234 226.24 169.021 226.24C168.127 226.24 167.121 226.2 166.001 226.12C164.934 226.04 163.994 226 163.181 226C162.367 226 161.367 226.04 160.181 226.12C158.941 226.2 157.874 226.24 156.981 226.24C156.767 226.24 156.661 226.053 156.661 225.68C156.661 225.347 156.767 225.167 156.981 225.14C158.594 224.953 159.687 224.653 160.261 224.24C160.847 223.827 161.141 223 161.141 221.76V202.94C161.141 202.007 161.021 201.353 160.781 200.98C160.554 200.593 160.147 200.293 159.561 200.08C158.974 199.853 158.114 199.673 156.981 199.54C156.767 199.54 156.661 199.353 156.661 198.98C156.661 198.607 156.767 198.42 156.981 198.42C157.874 198.42 158.941 198.46 160.181 198.54C161.367 198.62 162.367 198.66 163.181 198.66C163.994 198.66 164.934 198.62 166.001 198.54C167.121 198.46 168.127 198.42 169.021 198.42C169.234 198.42 169.341 198.607 169.341 198.98C169.341 199.353 169.234 199.54 169.021 199.54C167.981 199.66 167.194 199.82 166.661 200.02C166.127 200.22 165.754 200.493 165.541 200.84C165.327 201.173 165.221 201.873 165.221 202.94V211.56H180.481V202.94C180.481 202.047 180.401 201.407 180.241 201.02C180.094 200.633 179.747 200.327 179.201 200.1C178.667 199.86 177.827 199.673 176.681 199.54C176.467 199.54 176.361 199.353 176.361 198.98C176.361 198.607 176.467 198.42 176.681 198.42C177.574 198.42 178.581 198.46 179.701 198.54C180.767 198.62 181.707 198.66 182.521 198.66C183.334 198.66 184.327 198.62 185.501 198.54C186.741 198.46 187.814 198.42 188.721 198.42C188.934 198.42 189.041 198.607 189.041 198.98C189.041 199.353 188.934 199.54 188.721 199.54C187.587 199.673 186.727 199.853 186.141 200.08C185.554 200.293 185.141 200.593 184.901 200.98C184.674 201.353 184.561 202.007 184.561 202.94V221.76C184.561 223 184.847 223.827 185.421 224.24C186.007 224.653 187.107 224.953 188.721 225.14C188.934 225.167 189.041 225.347 189.041 225.68ZM211.564 217.72C211.564 220.373 210.697 222.56 208.964 224.28C207.244 225.987 205.01 226.84 202.264 226.84C199.517 226.84 197.277 225.98 195.544 224.26C193.81 222.54 192.944 220.36 192.944 217.72C192.944 215.04 193.817 212.813 195.564 211.04C197.31 209.253 199.544 208.36 202.264 208.36C204.997 208.36 207.23 209.247 208.964 211.02C210.697 212.793 211.564 215.027 211.564 217.72ZM207.544 217.68C207.544 215.24 207.07 213.293 206.124 211.84C205.19 210.373 203.904 209.64 202.264 209.64C200.637 209.64 199.35 210.373 198.404 211.84C197.457 213.307 196.984 215.253 196.984 217.68C196.984 220.093 197.45 222.013 198.384 223.44C199.317 224.853 200.61 225.56 202.264 225.56C203.917 225.56 205.21 224.86 206.144 223.46C207.077 222.047 207.544 220.12 207.544 217.68ZM248.649 225.68C248.649 226.053 248.542 226.24 248.329 226.24C247.796 226.24 247.142 226.2 246.369 226.12C245.516 226.04 244.756 226 244.089 226C243.436 226 242.682 226.04 241.829 226.12C241.056 226.2 240.396 226.24 239.849 226.24C239.636 226.24 239.529 226.053 239.529 225.68C239.529 225.347 239.636 225.167 239.849 225.14C240.756 225.033 241.349 224.773 241.629 224.36C241.909 223.947 242.049 223.08 242.049 221.76V215.08C242.049 213.573 241.762 212.48 241.189 211.8C240.616 211.107 239.716 210.76 238.489 210.76C236.876 210.76 235.542 211.307 234.489 212.4V221.76C234.489 223.08 234.636 223.947 234.929 224.36C235.222 224.773 235.822 225.033 236.729 225.14C236.942 225.167 237.049 225.347 237.049 225.68C237.049 226.053 236.942 226.24 236.729 226.24C236.196 226.24 235.576 226.2 234.869 226.12C234.096 226.04 233.389 226 232.749 226C232.082 226 231.356 226.04 230.569 226.12C229.862 226.2 229.242 226.24 228.709 226.24C228.496 226.24 228.389 226.053 228.389 225.68C228.389 225.347 228.496 225.167 228.709 225.14C229.629 225.033 230.229 224.773 230.509 224.36C230.802 223.947 230.949 223.08 230.949 221.76V215.08C230.949 213.587 230.656 212.493 230.069 211.8C229.482 211.107 228.576 210.76 227.349 210.76C226.576 210.76 225.889 210.907 225.289 211.2C224.702 211.493 224.069 212.013 223.389 212.76V221.76C223.389 223.08 223.529 223.947 223.809 224.36C224.102 224.773 224.709 225.033 225.629 225.14C225.842 225.167 225.949 225.347 225.949 225.68C225.949 226.053 225.842 226.24 225.629 226.24C225.082 226.24 224.416 226.2 223.629 226.12C222.762 226.04 222.002 226 221.349 226C220.682 226 219.922 226.04 219.069 226.12C218.309 226.2 217.656 226.24 217.109 226.24C216.896 226.24 216.789 226.053 216.789 225.68C216.789 225.347 216.896 225.167 217.109 225.14C218.242 224.993 218.969 224.72 219.289 224.32C219.622 223.92 219.789 223.067 219.789 221.76V214.36C219.789 213.293 219.649 212.593 219.369 212.26C219.102 211.927 218.509 211.707 217.589 211.6C217.376 211.6 217.269 211.427 217.269 211.08C217.269 210.76 217.376 210.6 217.589 210.6C218.909 210.267 220.009 209.893 220.889 209.48C221.769 209.053 222.322 208.707 222.549 208.44C222.682 208.28 222.829 208.2 222.989 208.2C223.362 208.2 223.549 208.307 223.549 208.52L223.389 211.04C225.309 209.253 227.096 208.36 228.749 208.36C231.282 208.36 233.002 209.333 233.909 211.28C235.936 209.333 237.916 208.36 239.849 208.36C241.676 208.36 243.096 208.88 244.109 209.92C245.136 210.96 245.649 212.36 245.649 214.12V221.76C245.649 223.067 245.809 223.92 246.129 224.32C246.462 224.72 247.196 224.993 248.329 225.14C248.542 225.167 248.649 225.347 248.649 225.68ZM268.915 214.88C268.915 215.253 268.675 215.44 268.195 215.44H257.235C257.155 216.16 257.115 216.907 257.115 217.68C257.115 219.827 257.622 221.48 258.635 222.64C259.662 223.787 261.115 224.36 262.995 224.36C263.942 224.36 264.895 224.107 265.855 223.6C266.815 223.093 267.588 222.447 268.175 221.66L268.275 221.62C268.395 221.62 268.508 221.693 268.615 221.84C268.735 221.987 268.795 222.16 268.795 222.36C268.795 222.64 268.368 223.227 267.515 224.12C266.662 225 265.735 225.673 264.735 226.14C263.735 226.607 262.688 226.84 261.595 226.84C259.195 226.84 257.175 225.96 255.535 224.2C253.895 222.44 253.075 220.28 253.075 217.72C253.075 215.107 253.875 212.893 255.475 211.08C257.088 209.267 259.128 208.36 261.595 208.36C263.662 208.36 265.395 209.04 266.795 210.4C268.208 211.747 268.915 213.24 268.915 214.88ZM265.275 213.12C265.275 212.12 264.928 211.293 264.235 210.64C263.555 209.973 262.675 209.64 261.595 209.64C260.568 209.64 259.675 210.073 258.915 210.94C258.168 211.793 257.662 212.92 257.395 214.32L262.955 214.16C263.795 214.147 264.388 214.067 264.735 213.92C265.095 213.773 265.275 213.507 265.275 213.12ZM287.186 221.08C287.186 222.707 286.546 224.073 285.266 225.18C283.986 226.287 282.439 226.84 280.626 226.84C279.986 226.84 278.999 226.7 277.666 226.42C276.666 226.22 275.986 226.12 275.626 226.12C275.519 225.187 275.273 223.767 274.886 221.86C274.886 221.66 275.079 221.56 275.466 221.56C275.786 221.56 275.979 221.667 276.046 221.88C276.353 222.867 276.959 223.727 277.866 224.46C278.773 225.193 279.706 225.56 280.666 225.56C281.666 225.56 282.439 225.287 282.986 224.74C283.546 224.193 283.826 223.427 283.826 222.44C283.826 221.813 283.593 221.26 283.126 220.78C282.673 220.3 281.679 219.707 280.146 219C278.133 218.08 276.799 217.213 276.146 216.4C275.506 215.587 275.186 214.613 275.186 213.48C275.186 212.08 275.793 210.88 277.006 209.88C278.219 208.867 279.653 208.36 281.306 208.36C281.999 208.36 282.973 208.48 284.226 208.72C284.919 208.853 285.373 208.92 285.586 208.92C285.626 210.493 285.713 211.833 285.846 212.94C285.846 213.14 285.653 213.24 285.266 213.24C284.933 213.24 284.746 213.133 284.706 212.92C284.559 211.947 284.193 211.16 283.606 210.56C283.019 209.947 282.319 209.64 281.506 209.64C279.426 209.64 278.386 210.547 278.386 212.36C278.386 212.973 278.633 213.54 279.126 214.06C279.619 214.58 280.693 215.253 282.346 216.08C284.319 217.067 285.619 217.92 286.246 218.64C286.873 219.36 287.186 220.173 287.186 221.08Z" fill="#202452"/>
</svg>
