<svg width="162" height="96" viewBox="0 0 162 96" fill="none" xmlns="http://www.w3.org/2000/svg">
<path d="M70.1122 88.904C70.1122 89.016 70.0802 89.072 70.0162 89.072C69.7442 89.072 69.4222 89.06 69.0502 89.036C68.6982 89.012 68.4002 89 68.1562 89C67.9122 89 67.6302 89.012 67.3102 89.036C66.9742 89.06 66.6722 89.072 66.4042 89.072C66.3402 89.072 66.3082 89.016 66.3082 88.904C66.3082 88.804 66.3422 88.75 66.4102 88.742C66.7462 88.702 66.9962 88.648 67.1602 88.58C67.3242 88.508 67.4282 88.416 67.4722 88.304C67.5202 88.188 67.5442 87.996 67.5442 87.728V85.052H62.9662V87.728C62.9662 87.996 62.9882 88.188 63.0322 88.304C63.0802 88.416 63.1862 88.508 63.3502 88.58C63.5142 88.648 63.7662 88.702 64.1062 88.742C64.1702 88.75 64.2022 88.804 64.2022 88.904C64.2022 89.016 64.1702 89.072 64.1062 89.072C63.8382 89.072 63.5362 89.06 63.2002 89.036C62.8802 89.012 62.5982 89 62.3542 89C62.1102 89 61.8102 89.012 61.4542 89.036C61.0822 89.06 60.7622 89.072 60.4942 89.072C60.4302 89.072 60.3982 89.016 60.3982 88.904C60.3982 88.804 60.4302 88.75 60.4942 88.742C60.9782 88.686 61.3062 88.596 61.4782 88.472C61.6542 88.348 61.7422 88.1 61.7422 87.728V82.082C61.7422 81.802 61.7062 81.606 61.6342 81.494C61.5662 81.378 61.4442 81.288 61.2682 81.224C61.0922 81.156 60.8342 81.102 60.4942 81.062C60.4302 81.062 60.3982 81.006 60.3982 80.894C60.3982 80.782 60.4302 80.726 60.4942 80.726C60.7622 80.726 61.0822 80.738 61.4542 80.762C61.8102 80.786 62.1102 80.798 62.3542 80.798C62.5982 80.798 62.8802 80.786 63.2002 80.762C63.5362 80.738 63.8382 80.726 64.1062 80.726C64.1702 80.726 64.2022 80.782 64.2022 80.894C64.2022 81.006 64.1702 81.062 64.1062 81.062C63.7942 81.098 63.5582 81.146 63.3982 81.206C63.2382 81.266 63.1262 81.348 63.0622 81.452C62.9982 81.552 62.9662 81.762 62.9662 82.082V84.668H67.5442V82.082C67.5442 81.814 67.5202 81.622 67.4722 81.506C67.4282 81.39 67.3242 81.298 67.1602 81.23C67.0002 81.158 66.7482 81.102 66.4042 81.062C66.3402 81.062 66.3082 81.006 66.3082 80.894C66.3082 80.782 66.3402 80.726 66.4042 80.726C66.6722 80.726 66.9742 80.738 67.3102 80.762C67.6302 80.786 67.9122 80.798 68.1562 80.798C68.4002 80.798 68.6982 80.786 69.0502 80.762C69.4222 80.738 69.7442 80.726 70.0162 80.726C70.0802 80.726 70.1122 80.782 70.1122 80.894C70.1122 81.006 70.0802 81.062 70.0162 81.062C69.6762 81.102 69.4182 81.156 69.2422 81.224C69.0662 81.288 68.9422 81.378 68.8702 81.494C68.8022 81.606 68.7682 81.802 68.7682 82.082V87.728C68.7682 88.1 68.8542 88.348 69.0262 88.472C69.2022 88.596 69.5322 88.686 70.0162 88.742C70.0802 88.75 70.1122 88.804 70.1122 88.904ZM76.8691 86.516C76.8691 87.312 76.6091 87.968 76.0891 88.484C75.5731 88.996 74.9031 89.252 74.0791 89.252C73.2551 89.252 72.5831 88.994 72.0631 88.478C71.5431 87.962 71.2831 87.308 71.2831 86.516C71.2831 85.712 71.5451 85.044 72.0691 84.512C72.5931 83.976 73.2631 83.708 74.0791 83.708C74.8991 83.708 75.5691 83.974 76.0891 84.506C76.6091 85.038 76.8691 85.708 76.8691 86.516ZM75.6631 86.504C75.6631 85.772 75.5211 85.188 75.2371 84.752C74.9571 84.312 74.5711 84.092 74.0791 84.092C73.5911 84.092 73.2051 84.312 72.9211 84.752C72.6371 85.192 72.4951 85.776 72.4951 86.504C72.4951 87.228 72.6351 87.804 72.9151 88.232C73.1951 88.656 73.5831 88.868 74.0791 88.868C74.5751 88.868 74.9631 88.658 75.2431 88.238C75.5231 87.814 75.6631 87.236 75.6631 86.504ZM87.9947 88.904C87.9947 89.016 87.9627 89.072 87.8987 89.072C87.7387 89.072 87.5427 89.06 87.3107 89.036C87.0547 89.012 86.8267 89 86.6267 89C86.4307 89 86.2047 89.012 85.9487 89.036C85.7167 89.06 85.5187 89.072 85.3547 89.072C85.2907 89.072 85.2587 89.016 85.2587 88.904C85.2587 88.804 85.2907 88.75 85.3547 88.742C85.6267 88.71 85.8047 88.632 85.8887 88.508C85.9727 88.384 86.0147 88.124 86.0147 87.728V85.724C86.0147 85.272 85.9287 84.944 85.7567 84.74C85.5847 84.532 85.3147 84.428 84.9467 84.428C84.4627 84.428 84.0627 84.592 83.7467 84.92V87.728C83.7467 88.124 83.7907 88.384 83.8787 88.508C83.9667 88.632 84.1467 88.71 84.4187 88.742C84.4827 88.75 84.5147 88.804 84.5147 88.904C84.5147 89.016 84.4827 89.072 84.4187 89.072C84.2587 89.072 84.0727 89.06 83.8607 89.036C83.6287 89.012 83.4167 89 83.2247 89C83.0247 89 82.8067 89.012 82.5707 89.036C82.3587 89.06 82.1727 89.072 82.0127 89.072C81.9487 89.072 81.9167 89.016 81.9167 88.904C81.9167 88.804 81.9487 88.75 82.0127 88.742C82.2887 88.71 82.4687 88.632 82.5527 88.508C82.6407 88.384 82.6847 88.124 82.6847 87.728V85.724C82.6847 85.276 82.5967 84.948 82.4207 84.74C82.2447 84.532 81.9727 84.428 81.6047 84.428C81.3727 84.428 81.1667 84.472 80.9867 84.56C80.8107 84.648 80.6207 84.804 80.4167 85.028V87.728C80.4167 88.124 80.4587 88.384 80.5427 88.508C80.6307 88.632 80.8127 88.71 81.0887 88.742C81.1527 88.75 81.1847 88.804 81.1847 88.904C81.1847 89.016 81.1527 89.072 81.0887 89.072C80.9247 89.072 80.7247 89.06 80.4887 89.036C80.2287 89.012 80.0007 89 79.8047 89C79.6047 89 79.3767 89.012 79.1207 89.036C78.8927 89.06 78.6967 89.072 78.5327 89.072C78.4687 89.072 78.4367 89.016 78.4367 88.904C78.4367 88.804 78.4687 88.75 78.5327 88.742C78.8727 88.698 79.0907 88.616 79.1867 88.496C79.2867 88.376 79.3367 88.12 79.3367 87.728V85.508C79.3367 85.188 79.2947 84.978 79.2107 84.878C79.1307 84.778 78.9527 84.712 78.6767 84.68C78.6127 84.68 78.5807 84.628 78.5807 84.524C78.5807 84.428 78.6127 84.38 78.6767 84.38C79.0727 84.28 79.4027 84.168 79.6667 84.044C79.9307 83.916 80.0967 83.812 80.1647 83.732C80.2047 83.684 80.2487 83.66 80.2967 83.66C80.4087 83.66 80.4647 83.692 80.4647 83.756L80.4167 84.512C80.9927 83.976 81.5287 83.708 82.0247 83.708C82.7847 83.708 83.3007 84 83.5727 84.584C84.1807 84 84.7747 83.708 85.3547 83.708C85.9027 83.708 86.3287 83.864 86.6327 84.176C86.9407 84.488 87.0947 84.908 87.0947 85.436V87.728C87.0947 88.12 87.1427 88.376 87.2387 88.496C87.3387 88.616 87.5587 88.698 87.8987 88.742C87.9627 88.75 87.9947 88.804 87.9947 88.904ZM94.0745 85.664C94.0745 85.776 94.0025 85.832 93.8585 85.832H90.5705C90.5465 86.048 90.5345 86.272 90.5345 86.504C90.5345 87.148 90.6865 87.644 90.9905 87.992C91.2985 88.336 91.7345 88.508 92.2985 88.508C92.5825 88.508 92.8685 88.432 93.1565 88.28C93.4445 88.128 93.6765 87.934 93.8525 87.698L93.8825 87.686C93.9185 87.686 93.9525 87.708 93.9845 87.752C94.0205 87.796 94.0385 87.848 94.0385 87.908C94.0385 87.992 93.9105 88.168 93.6545 88.436C93.3985 88.7 93.1205 88.902 92.8205 89.042C92.5205 89.182 92.2065 89.252 91.8785 89.252C91.1585 89.252 90.5525 88.988 90.0605 88.46C89.5685 87.932 89.3225 87.284 89.3225 86.516C89.3225 85.732 89.5625 85.068 90.0425 84.524C90.5265 83.98 91.1385 83.708 91.8785 83.708C92.4985 83.708 93.0185 83.912 93.4385 84.32C93.8625 84.724 94.0745 85.172 94.0745 85.664ZM92.9825 85.136C92.9825 84.836 92.8785 84.588 92.6705 84.392C92.4665 84.192 92.2025 84.092 91.8785 84.092C91.5705 84.092 91.3025 84.222 91.0745 84.482C90.8505 84.738 90.6985 85.076 90.6185 85.496L92.2865 85.448C92.5385 85.444 92.7165 85.42 92.8205 85.376C92.9285 85.332 92.9825 85.252 92.9825 85.136ZM99.5558 87.524C99.5558 88.012 99.3638 88.422 98.9798 88.754C98.5958 89.086 98.1318 89.252 97.5878 89.252C97.3958 89.252 97.0998 89.21 96.6998 89.126C96.3998 89.066 96.1958 89.036 96.0878 89.036C96.0558 88.756 95.9818 88.33 95.8658 87.758C95.8658 87.698 95.9238 87.668 96.0398 87.668C96.1358 87.668 96.1938 87.7 96.2138 87.764C96.3058 88.06 96.4878 88.318 96.7598 88.538C97.0318 88.758 97.3118 88.868 97.5998 88.868C97.8998 88.868 98.1318 88.786 98.2958 88.622C98.4638 88.458 98.5478 88.228 98.5478 87.932C98.5478 87.744 98.4778 87.578 98.3378 87.434C98.2018 87.29 97.9038 87.112 97.4438 86.9C96.8398 86.624 96.4398 86.364 96.2438 86.12C96.0518 85.876 95.9558 85.584 95.9558 85.244C95.9558 84.824 96.1378 84.464 96.5018 84.164C96.8658 83.86 97.2958 83.708 97.7918 83.708C97.9998 83.708 98.2918 83.744 98.6678 83.816C98.8758 83.856 99.0118 83.876 99.0758 83.876C99.0878 84.348 99.1138 84.75 99.1538 85.082C99.1538 85.142 99.0958 85.172 98.9798 85.172C98.8798 85.172 98.8238 85.14 98.8118 85.076C98.7678 84.784 98.6578 84.548 98.4818 84.368C98.3058 84.184 98.0958 84.092 97.8518 84.092C97.2278 84.092 96.9158 84.364 96.9158 84.908C96.9158 85.092 96.9898 85.262 97.1378 85.418C97.2858 85.574 97.6078 85.776 98.1038 86.024C98.6958 86.32 99.0858 86.576 99.2738 86.792C99.4618 87.008 99.5558 87.252 99.5558 87.524Z" fill="#202452"/>
<path d="M10 58.2627L26 58.2626" stroke="#202452" stroke-width="4" stroke-linecap="round"/>
<path d="M137.43 57.2627L153.43 57.2626" stroke="#202452" stroke-width="4" stroke-linecap="round"/>
<path d="M26.17 58L80.8198 14.2462" stroke="#202452" stroke-width="4" stroke-linecap="round"/>
<path d="M137.11 57L81.4348 14.5585" stroke="#202452" stroke-width="4" stroke-linecap="round"/>
<path d="M56.3574 75.096L52.4214 66.424L51.9574 73.528C51.9467 73.7947 52.016 73.9973 52.1654 74.136C52.3147 74.264 52.5334 74.3547 52.8214 74.408L53.9894 74.648V75H49.5894V74.648L50.5174 74.44C50.7094 74.3973 50.864 74.344 50.9814 74.28C51.1094 74.2053 51.2054 74.1093 51.2694 73.992C51.3334 73.8747 51.3707 73.72 51.3814 73.528L51.8614 65.704C51.8827 65.3627 51.8347 65.1387 51.7174 65.032C51.6107 64.9253 51.3707 64.8347 50.9974 64.76L50.1814 64.584V64.232L53.9414 64.248L57.3174 71.656L60.3094 64.232H64.1814V64.584L63.3654 64.76C63.0027 64.8347 62.7627 64.9253 62.6454 65.032C62.5387 65.1387 62.4907 65.3627 62.5014 65.704L62.8214 73.528C62.832 73.752 62.8587 73.9227 62.9014 74.04C62.944 74.1573 63.024 74.248 63.1414 74.312C63.2587 74.3653 63.44 74.4187 63.6854 74.472L64.5014 74.648V75H58.9014V74.648L59.7174 74.472C60.0907 74.3867 60.3307 74.2907 60.4374 74.184C60.5547 74.0773 60.6027 73.8587 60.5814 73.528L60.2294 66.056L56.5974 75.096H56.3574ZM65.4644 75V74.648L66.2804 74.472C66.6537 74.3867 66.8884 74.2907 66.9844 74.184C67.091 74.0773 67.1444 73.8587 67.1444 73.528V65.704C67.1444 65.3627 67.091 65.1387 66.9844 65.032C66.8884 64.9253 66.6537 64.8347 66.2804 64.76L65.4644 64.584V64.232H71.0644V64.584L70.2484 64.76C69.8857 64.8347 69.651 64.9253 69.5444 65.032C69.4377 65.1387 69.3844 65.3627 69.3844 65.704V69.96L74.0564 65.448C74.1737 65.3413 74.227 65.224 74.2164 65.096C74.2057 64.9573 74.0777 64.8667 73.8324 64.824L72.5684 64.584V64.232H76.8724V64.584L76.3924 64.696C76.1897 64.7387 76.003 64.7973 75.8324 64.872C75.6617 64.936 75.4857 65.032 75.3044 65.16C75.1337 65.288 74.931 65.464 74.6964 65.688L71.6884 68.6L75.8164 73.976C76.019 74.2 76.2164 74.3653 76.4084 74.472C76.6004 74.5787 76.8404 74.632 77.1284 74.632V75H75.1924C74.7444 75 74.371 74.9413 74.0724 74.824C73.7737 74.696 73.4857 74.4827 73.2084 74.184L70.0724 70.152L69.3844 70.824V73.528C69.3844 73.8587 69.4377 74.0773 69.5444 74.184C69.651 74.2907 69.8857 74.3867 70.2484 74.472L71.0644 74.648V75H65.4644ZM82.7213 75.24L78.9293 65.288C78.8759 65.1493 78.8066 65.0427 78.7213 64.968C78.6359 64.8827 78.4919 64.8187 78.2893 64.776L77.4093 64.584V64.232H83.1693V64.584L82.3533 64.76C81.9906 64.8347 81.7559 64.9413 81.6493 65.08C81.5426 65.208 81.5426 65.4107 81.6493 65.688L83.8733 72.344L86.1773 65.544C86.2519 65.3307 86.2359 65.1653 86.1293 65.048C86.0333 64.92 85.8786 64.8347 85.6653 64.792L84.5453 64.584V64.232H89.6173V64.584L88.6093 64.792C88.4813 64.8133 88.3693 64.856 88.2733 64.92C88.1773 64.9733 88.1079 65.0533 88.0653 65.16C88.0333 65.256 88.0439 65.384 88.0973 65.544L90.4013 72.44L92.8653 65.48C92.9293 65.2987 92.9079 65.1707 92.8013 65.096C92.6946 65.0107 92.4119 64.9147 91.9533 64.808L90.9613 64.584V64.232H95.4253V64.584L94.4173 64.808C94.2146 64.8507 94.0386 64.9253 93.8893 65.032C93.7399 65.128 93.6333 65.2667 93.5693 65.448L89.9853 75.24H89.2173L86.2413 67.432L83.4893 75.24H82.7213ZM94.98 75V74.728L95.492 74.536C95.78 74.4187 95.924 74.2053 95.924 73.896V69.32C95.924 69.096 95.8867 68.9467 95.812 68.872C95.7373 68.7973 95.6307 68.744 95.492 68.712L94.98 68.584V68.296C95.588 68.2107 96.1053 68.1307 96.532 68.056C96.9587 67.9813 97.4013 67.8587 97.86 67.688L98.02 67.816C97.9453 67.9333 97.8867 68.1147 97.844 68.36C97.812 68.6053 97.796 68.872 97.796 69.16V74.008C97.796 74.1573 97.844 74.2747 97.94 74.36C98.0467 74.4453 98.1427 74.504 98.228 74.536L98.74 74.728V75H94.98ZM96.836 66.28C96.5053 66.28 96.2227 66.168 95.988 65.944C95.764 65.7093 95.652 65.4267 95.652 65.096C95.652 64.7653 95.764 64.488 95.988 64.264C96.2227 64.0293 96.5053 63.912 96.836 63.912C97.1667 63.912 97.444 64.0293 97.668 64.264C97.9027 64.488 98.02 64.7653 98.02 65.096C98.02 65.4267 97.9027 65.7093 97.668 65.944C97.444 66.168 97.1667 66.28 96.836 66.28ZM102.232 75.128C101.71 75.128 101.219 75.0533 100.76 74.904C100.302 74.744 99.9497 74.5947 99.7044 74.456C99.7257 74.1467 99.7364 73.7947 99.7364 73.4C99.747 73.0053 99.7097 72.6427 99.6244 72.312H100.232C100.296 72.728 100.419 73.112 100.6 73.464C100.792 73.816 101.032 74.0987 101.32 74.312C101.619 74.5253 101.955 74.632 102.328 74.632C102.648 74.632 102.904 74.5413 103.096 74.36C103.299 74.1787 103.4 73.928 103.4 73.608C103.4 73.352 103.352 73.144 103.256 72.984C103.16 72.8133 102.984 72.6587 102.728 72.52C102.483 72.3707 102.126 72.2053 101.656 72.024C101.016 71.7787 100.552 71.4853 100.264 71.144C99.9764 70.792 99.8324 70.328 99.8324 69.752C99.8324 69.4 99.939 69.0747 100.152 68.776C100.376 68.4773 100.68 68.2373 101.064 68.056C101.459 67.864 101.918 67.768 102.44 67.768C102.792 67.768 103.08 67.8 103.304 67.864C103.528 67.928 103.763 68.0133 104.008 68.12H104.424C104.382 68.5147 104.371 68.856 104.392 69.144C104.424 69.432 104.472 69.7467 104.536 70.088H104.056C103.896 69.4907 103.667 69.0373 103.368 68.728C103.07 68.408 102.702 68.248 102.264 68.248C101.976 68.248 101.742 68.3333 101.56 68.504C101.39 68.664 101.304 68.8773 101.304 69.144C101.304 69.4 101.358 69.608 101.464 69.768C101.571 69.928 101.747 70.0667 101.992 70.184C102.238 70.3013 102.563 70.4293 102.968 70.568C103.544 70.7707 104.014 71.0427 104.376 71.384C104.739 71.7147 104.92 72.2213 104.92 72.904C104.92 73.2667 104.824 73.6187 104.632 73.96C104.44 74.3013 104.142 74.584 103.736 74.808C103.342 75.0213 102.84 75.128 102.232 75.128ZM109.483 75.128C108.8 75.128 108.192 74.968 107.659 74.648C107.136 74.328 106.72 73.896 106.411 73.352C106.112 72.808 105.963 72.2053 105.963 71.544C105.963 70.7973 106.123 70.1413 106.443 69.576C106.773 69.0107 107.216 68.568 107.771 68.248C108.336 67.928 108.971 67.768 109.674 67.768C110.24 67.768 110.731 67.9013 111.147 68.168C111.573 68.424 111.904 68.7813 112.139 69.24C112.373 69.688 112.491 70.1947 112.491 70.76C112.491 70.8667 112.459 70.9627 112.395 71.048C112.341 71.1227 112.251 71.16 112.123 71.16H106.939V70.584L110.411 70.44C110.56 70.44 110.635 70.328 110.635 70.104C110.635 69.5387 110.539 69.096 110.347 68.776C110.155 68.4453 109.899 68.28 109.579 68.28C109.088 68.28 108.704 68.5467 108.427 69.08C108.149 69.6133 108.011 70.312 108.011 71.176C108.011 71.7733 108.117 72.28 108.331 72.696C108.544 73.112 108.827 73.4267 109.179 73.64C109.531 73.8533 109.915 73.96 110.331 73.96C110.96 73.96 111.589 73.6933 112.219 73.16L112.491 73.416C112.064 74.0027 111.6 74.4347 111.099 74.712C110.597 74.9893 110.059 75.128 109.483 75.128Z" fill="#202452"/>
<rect x="81" y="48" width="10" height="10" fill="#DAB212"/>
<rect x="70" y="37" width="10" height="10" fill="#DAB212"/>
<rect x="70" y="48" width="10" height="10" fill="#DAB212"/>
<rect x="81" y="37" width="10" height="10" fill="#DAB212"/>
</svg>
